<?xml version="1.0" encoding="utf-8"?>
<!-- Generator: Adobe Illustrator 27.5.0, SVG Export Plug-In . SVG Version: 6.00 Build 0)  -->
<svg version="1.1" xmlns="http://www.w3.org/2000/svg" xmlns:xlink="http://www.w3.org/1999/xlink" x="0px" y="0px"
	 viewBox="0 0 750 500" style="enable-background:new 0 0 750 500;" xml:space="preserve">
<g id="BACKGROUND">
	<rect style="fill:#FFFFFF;" width="750" height="500"/>
</g>
<g id="OBJECTS">
	<g>
		<path style="fill:#DED9FF;" d="M540.4,456.074c-17.349-10.869-30.346-28.76-31.648-49.005
			c-1.457-22.657,12.221-43.163,11.866-65.427c-0.145-9.058-6.59-17.998-7.709-27.417c-1.3-10.942,0.202-22.248,4.631-32.359
			c8.205-18.729,26.205-32.83,46.353-36.313c18.96-3.278,37.826,2.306,56.336,5.743c8.929,1.658,18.116,3.231,27.103,2.101
			c10.336-1.299,20.693-4.136,31.225-3.464c16.678,1.064,31.868,11.642,40.967,25.66c9.099,14.018,12.625,31.089,12.649,47.801
			c0.022,14.735-2.201,29.839-5.659,44.151c-2.648,10.957-8.138,24.561-15.178,33.506c-6.647,8.444-14.051,16.291-22.078,23.436
			C673,438.959,654.17,450.56,633.865,458.421c-24.513,9.49-52.141,13.504-77.124,5.331
			C551.04,461.887,545.53,459.287,540.4,456.074z"/>
		<g>
			<defs>
				<path id="SVGID_1_" d="M535.69,456.178c-17.897-11.212-31.304-29.667-32.647-50.551c-1.677-26.08,14.707-51.166,11.408-77.09
					c-1.948-15.309-10.65-29.253-11.805-44.641c-1.046-13.931,3.965-27.682,8.879-40.512c5.163-13.48,11.777-26.475,20.505-38.012
					c14.447-19.094,35.344-34.141,59.015-37.751c30.251-4.614,60.882,9.999,82.853,31.299
					c16.905,16.388,29.611,36.449,41.067,56.865c10.958,19.529,18.516,40.797,18.55,63.527c0.022,15.2-2.27,30.78-5.838,45.544
					c-2.731,11.302-8.395,25.336-15.657,34.563c-6.857,8.711-14.494,16.805-22.774,24.176
					c-16.772,14.929-36.196,26.896-57.142,35.005c-25.286,9.79-53.786,13.93-79.557,5.499
					C546.666,462.174,540.982,459.493,535.69,456.178z"/>
			</defs>
			<clipPath id="SVGID_00000041987683131730114980000016185264900040776843_">
				<use xlink:href="#SVGID_1_"  style="overflow:visible;"/>
			</clipPath>
			<g style="clip-path:url(#SVGID_00000041987683131730114980000016185264900040776843_);">
				<g>
					<path style="fill:#B56521;" d="M601.257,345.783c-2.243,1.686-4.392,3.029-6.415,5.001
						c-6.107,5.953-12.011,12.114-17.697,18.47c-5.431,6.07-10.14,13.249-14.674,20.055c1.99-20.442,3.981-40.883,5.971-61.325
						c-5.159,1.621-10.549,2.504-15.956,2.616c-9.608,26.144-18.947,53.303-17.35,81.112c0.284,4.94,1.099,10.259,4.599,13.756
						c3.103,3.1,7.73,4.128,12.114,4.263c13.382,0.411,25.991-6.111,37.043-13.668c8.838-6.043,17.143-12.863,24.79-20.357"/>
					<g>
						<path style="fill:#FFCC99;" d="M573.413,320.866c-1.192,3.296-2.541,6.742-5.048,9.28c-2.646,2.677-6.634,4.275-10.212,5.237
							c-1.474,0.396-3.414,0.869-4.851,0.158c-1.128-0.558-2.253-1.541-3.07-2.494c-1.761-2.053-2.734-4.731-3.096-7.386
							c-0.542-3.976,0.074-8.007,0.173-12.019c0.137-5.556-0.749-11.132-2.563-16.383c-0.907-2.626-2.046-5.172-3.406-7.595
							c-0.72-1.284-2.545-4.849-0.216-5.74c0.855-0.327,1.762,0.293,2.435,0.914c1.238,1.141,2.349,2.414,3.321,3.789
							c0.83,1.173,1.866,1.935,2.895,2.931c-1.445-3.248-2.803-6.458-3.72-9.905c-0.246-0.925-0.468-1.898-0.254-2.831
							c0.214-0.933,0.997-1.805,1.954-1.801c0.948,0.004,1.678,0.804,2.255,1.557c1.396,1.821,2.654,3.747,3.76,5.756
							c-0.42-2.684-0.84-5.368-1.26-8.052c-0.102-0.654-0.191-1.377,0.17-1.932c0.477-0.733,1.573-0.826,2.355-0.436
							c0.782,0.39,1.32,1.131,1.816,1.85c2.256,3.271,4.304,6.684,6.129,10.214c-0.582-3.457-1.165-6.915-1.747-10.372
							c-0.116-0.687-0.198-1.489,0.288-1.987c0.477-0.488,1.319-0.427,1.884-0.044c0.565,0.383,0.913,1.005,1.226,1.612
							c4.951,9.591,5.947,20.679,6.548,31.456c1.742-2.901,3.483-5.803,5.224-8.704c0.304-0.507,0.711-1.077,1.303-1.083
							c0.719-0.008,1.136,0.807,1.293,1.508c0.625,2.795-0.148,5.694-0.962,8.44C576.634,311.534,575.092,316.224,573.413,320.866z"
							/>
						<path style="fill:#BF9973;" d="M561.809,314.384c-1.572,1.546-2.79,3.423-3.757,5.404c-0.323,0.661-0.626,1.345-1.099,1.909
							s-1.157,1.003-1.893,0.988c-1.342-0.027-2.219-1.507-2.295-2.847c-0.119-2.111,1.078-4.128,2.689-5.497
							c1.611-1.369,3.604-2.195,5.576-2.96c3.55-1.377,6.833-2.8,10.005-4.912c0.23,1.117-3.304,3.397-4.145,4.005
							C565.157,311.726,563.338,312.879,561.809,314.384z"/>
						<g>
							<path style="fill:#BF9973;" d="M562.645,285.998c1.062,4.965,2.126,10.106,1.086,15.076
								c-1.333-1.309-1.542-3.358-1.571-5.226c-0.052-3.366,0.223-6.727,0.497-10.082c0.232,0.408,0.464,0.817,0.696,1.225"/>
							<path style="fill:#BF9973;" d="M553.919,283.961c1.157,3.243,2.251,6.527,2.831,9.921c0.58,3.394,0.631,6.924-0.283,10.244
								c-0.632-0.557-0.832-1.452-0.924-2.29c-0.429-3.878,0.666-7.863-0.177-11.672c-0.453-2.049-1.461-4.019-1.365-6.115
								c0.038,0.229,0.076,0.458,0.114,0.687"/>
							<path style="fill:#BF9973;" d="M552.561,305.57c-0.884-0.539-1.433-1.508-1.698-2.508c-0.265-1-0.282-2.047-0.326-3.081
								c-0.068-1.495-0.192-2.986-0.381-4.471c-0.095-0.75-0.207-1.498-0.334-2.244c-0.089-0.519-0.335-1.182-0.284-1.696
								c0.346,0.356,0.522,0.993,0.706,1.449c0.385,0.957,0.72,1.935,1.01,2.926c0.584,1.994,0.977,4.044,1.17,6.113
								C552.534,303.226,552.58,304.399,552.561,305.57z"/>
						</g>
					</g>
				</g>
				<g>
					<path style="fill:#F2862C;" d="M599.19,492.904c-5.517-43.094-7.224-86.13-6.56-129.446c0.048-3.13,0.115-6.304,0.999-9.307
						c2.241-7.611,12.324-12.815,19.275-15.406c6.482-2.416,13.389-5.063,20.092-6.612c6.099-1.41,13.235-3.072,19.419-1.835
						c8.037,1.607,16.013,3.764,23.946,5.814c4.109,1.062,8.509,2.345,11.117,5.693c1.845,2.368,2.502,5.423,3.107,8.364
						c8.433,40.959,8.587,84.235,5.688,125.873"/>
					<path style="fill:#B56521;" d="M616.443,385.498c0.025-1.961-0.111-3.74,0.142-5.691c-5.534,0.097-11.067,0.194-16.601,0.291
						c0.046,1.183,0.064,2.37,0.139,3.552c0.079,1.24-0.001,1.526,1.28,1.568c2.329,0.076,4.662-0.301,6.995-0.264
						C611.087,384.996,613.773,385.177,616.443,385.498z"/>
				</g>
				<g>
					<g>
						<path style="fill:#FFCC99;" d="M653.092,330.92c-3.727-14.167-6.489-28.588-8.263-43.129
							c-5.08,10.582-15.233,18.383-26.473,21.767c-0.268,13.333-0.536,26.665-0.803,39.998c-0.087,4.357,6.089,6.349,10.438,6.628
							c4.349,0.279,8.647-1.317,12.328-3.649c3.742-2.37,7.007-5.545,9.248-9.365C651.808,339.349,654.218,335.203,653.092,330.92z"
							/>
						<path style="fill:#BF9973;" d="M618.404,333.721c7.291,0.034,14.246-3.993,18.759-9.719
							c4.513-5.726,6.776-12.978,7.499-20.232c0.375-3.766,0.346-7.653-0.896-11.228c-2.825,4.803-5.765,9.654-9.918,13.37
							c-3.694,3.306-8.133,5.275-13.087,5.514c-2.652,0.128-2.778,0.996-2.728,3.541c0.058,2.926,0.116,5.853,0.174,8.779
							C618.272,327.07,618.338,330.395,618.404,333.721z"/>
					</g>
					<g>
						<path style="fill:#B56521;" d="M611.072,349.968c0.802,6.863,4.901,13.265,10.797,16.866
							c1.986-3.776,4.604-7.219,7.711-10.143c-7.629-6.582-12.115-16.657-11.903-26.731c-0.045,1.69-1.399,2.546-2.403,3.949
							c-1.108,1.548-2.019,3.236-2.717,5.007C611.181,342.408,610.636,346.235,611.072,349.968z"/>
						<path style="fill:#B56521;" d="M645.361,340.968c-3.272,7.084-9.143,13.258-16.63,15.454c3.004,2.876,5,6.785,5.567,10.905
							c0.109,0.791,0.243,1.713,0.939,2.106c0.626,0.354,1.409,0.097,2.068-0.19c6.739-2.933,12.11-8.467,15.904-14.761
							c3.281-5.443,5.529-11.761,4.906-18.086c-0.589-5.985-3.869-13.453-7.95-17.897c-0.858,0.954-0.546,3.107-0.632,4.36
							c-0.147,2.14-0.375,4.276-0.72,6.394C648.156,333.281,647.076,337.255,645.361,340.968z"/>
					</g>
				</g>
				<g>
					<path style="fill:#FFCC99;" d="M587.78,283.263c0.117,6.351,0.844,12.691,2.189,18.9c0.824,3.805,1.895,7.61,3.865,10.968
						c1.97,3.358,4.932,6.26,8.62,7.507c3.369,1.139,7.058,0.829,10.54,0.104c9.644-2.007,18.604-7.171,25.176-14.508
						c6.572-7.338,10.721-16.81,11.658-26.616c0.66-6.907-0.692-13.923-3.247-20.357c-2.406-6.059-6.423-11.576-11.963-15.116
						c-6.409-4.095-14.396-5.314-21.933-4.293c-4.705,0.637-9.376,2.149-13.172,5.001c-3.91,2.938-6.719,7.178-8.478,11.742
						c-1.597,4.143-2.533,8.721-2.771,13.156C588.022,274.23,587.696,278.754,587.78,283.263z"/>
					<path style="fill:#281450;" d="M646.665,280.28c1.341-1.324,2.962-3.454,3.541-5.178c6.176,4.592,10.46-7.067,8.82-11.932
						c12.032,3.236,12.414-10.95,3.35-15.018c13.382,1.405,7.442-21.298-3.753-16.879c3.256-12.843-20.077-24.416-23.199-8.642
						c-4.197-11.626-24.738-21.641-28.804-5.103c-13.134-15.983-43.222,0.728-24.924,16.971
						c-26.161,10.802,2.53,45.075,15.188,19.119c3.681,9.724,20.18,11.894,23.474,0.822c-1.038,9.327,10.411,12.924,17.595,9.261
						C633.249,270.841,635.266,288.481,646.665,280.28z"/>
					<g>
						<path style="fill:#FFCC99;" d="M644.967,277.67c0.796-2.455,1.935-4.759,3.52-6.68c1.606-1.946,4.046-3.384,6.557-3.138
							c2.107,0.207,3.982,1.583,5.152,3.347c1.17,1.764,1.706,3.88,1.936,5.984c0.367,3.356-0.017,6.834-1.412,9.908
							c-1.395,3.074-3.847,5.717-6.948,7.052c-2.497,1.076-5.409,1.246-7.988,0.356c-2.396-0.826-2.474-4.084-2.436-6.258
							C643.408,284.845,643.852,281.109,644.967,277.67z"/>
						<path style="fill:#BF9973;" d="M653.325,274.97c-1.375,0.303-2.528,1.309-3.227,2.532c-0.698,1.222-0.982,2.644-1.056,4.049
							c-0.068,1.297,0.038,2.622,0.503,3.834c0.465,1.212,1.316,2.307,2.475,2.895c0.589,0.298,1.363,0.437,1.867,0.011
							c0.627-0.529,0.435-1.535,0.108-2.287c-0.448-1.027-1.047-1.985-1.46-3.027c-0.413-1.042-0.63-2.218-0.277-3.282
							c0.334-1.008,1.247-1.803,2.326-1.838c0.845-0.027,1.587,0.645,2.049-0.315C657.571,275.597,654.577,274.695,653.325,274.97z"
							/>
					</g>
					<g>
						<g>
							<path style="fill:#281450;" d="M612.85,297.185c3.221-2.736,7.28-4.459,11.482-4.908c0.203-1.005,0.327-2.035,0.29-3.103
								c-6.504,3.259-14.501,4.53-21.915,5.204c0.57,3.76,0.3,7.74-1.012,11.318c-0.392,0.862-0.811,0.99,0.41,1.099
								c1.406,0.157,2.864,0.123,4.329-0.052C607.65,303.052,609.887,299.701,612.85,297.185z"/>
							<path style="fill:#F2862C;" d="M624.331,292.277c-4.202,0.449-8.26,2.172-11.482,4.908c-2.963,2.516-5.2,5.867-6.416,9.557
								C614.483,305.78,622.76,300.063,624.331,292.277z"/>
						</g>
						<path style="fill:#BF9973;" d="M599.777,280.248c-0.829,1.059-1.571,2.262-1.686,3.602c-0.115,1.34,0.57,2.826,1.844,3.256
							c0.876,0.295,1.849,0.053,2.682-0.349c2.61-1.259,4.278-3.983,4.935-6.806c0.365-1.567,0.459-3.182,0.424-4.787
							c-0.017-0.802,0.225-3.776-0.437-4.302c-0.757-0.601-1.768,0.797-2.033,1.35c-0.697,1.461-1.25,2.776-2.286,4.06
							C602.118,277.637,600.858,278.866,599.777,280.248z"/>
						<g>
							<path style="fill:#281450;" d="M614.921,278.548c0.208,0.606,0.581,1.211,1.181,1.436c0.64,0.24,1.39-0.031,1.865-0.522
								c0.476-0.491,0.72-1.161,0.867-1.829c0.304-1.375-0.08-5.007-2.355-4.265C614.631,273.97,614.409,277.057,614.921,278.548z"
								/>
							<path style="fill:none;stroke:#281450;stroke-linecap:round;stroke-linejoin:round;stroke-miterlimit:10;" d="
								M610.857,269.602c0.983-1.72,2.706-2.999,4.637-3.443c1.93-0.444,4.039-0.047,5.675,1.07
								c0.496,0.339,0.973,0.777,1.122,1.359"/>
						</g>
						<g>
							<path style="fill:#281450;" d="M593.268,278.225c0.208,0.606,0.581,1.211,1.181,1.436c0.64,0.24,1.39-0.031,1.865-0.522
								c0.476-0.491,0.72-1.161,0.867-1.829c0.304-1.375-0.08-5.007-2.355-4.265C592.978,273.648,592.756,276.734,593.268,278.225z"
								/>
							<path style="fill:none;stroke:#281450;stroke-linecap:round;stroke-linejoin:round;stroke-miterlimit:10;" d="
								M590.797,269.356c1.129-1.856,3.238-3.076,5.41-3.127c2.172-0.052,4.337,1.065,5.553,2.865"/>
						</g>
					</g>
				</g>
				<path style="fill:#B56521;" d="M732.819,456.655c-9.98-28.147-40.902-44.283-52.585-71.767
					c-2.96-6.963-4.537-14.499-4.701-22.06c-0.135-6.243-0.033-15.454,3.713-20.719c4.917-6.911,11.676,1.725,15.606,5.349
					c5.272,4.862,10.257,10.035,14.929,15.476c9.347,10.885,17.443,22.843,24.093,35.556c7.845,14.998,13.679,31.057,17.168,47.624"
					/>
			</g>
		</g>
	</g>
	<g>
		<path style="fill:#D0F8FC;" d="M193.276,451.19c16.934-3.633,33.385-10.443,46.355-21.851c14.11-12.41,23.652-30.756,22.73-49.524
			c-0.618-12.58-5.361-23.317-8.379-35.414c-3.167-12.695-4.826-25.768-4.904-38.852c-0.085-14.232,1.339-29.739-6.804-41.411
			c-6.862-9.835-19.16-14.514-31.076-15.874c-11.915-1.36-23.969,0.036-35.952-0.451c-28.401-1.153-56.65-12.832-84.533-7.311
			c-13.513,2.676-26.066,9.605-35.824,19.288c-4.926,4.888-8.917,10.418-12.345,16.432c-2.97,5.21-7.142,9.324-10.111,14.65
			c-22.455,40.282-14.897,95.029,17.133,128.065c19.089,19.689,45.19,31.934,72.265,36.291c10.174,1.637,21.234,0.218,31.581-0.01
			c11.848-0.261,23.714-1.021,35.389-3.141C190.296,451.803,191.788,451.509,193.276,451.19z"/>
		<g>
			<defs>
				<path id="SVGID_00000164494521697921115600000017329826322766999216_" d="M194.169,450.668c2.98-0.797,5.941-1.66,8.879-2.587
					c12.817-4.043,27.025-6.175,38.89-12.744c11.074-6.131,20.474-15.194,27.603-25.608c11.994-17.521,18.043-38.418,22.12-59.256
					c4.135-21.135,6.407-43.137,1.443-64.092c-4.965-20.955-18.188-40.853-37.962-49.383c-15.647-6.75-34.024-6.026-48.869-14.394
					c-13.938-7.857-22.574-22.474-34.752-32.852c-13.211-11.258-30.776-17.267-48.114-16.46s-34.269,8.421-46.377,20.857
					c-11.365,11.673-18.007,26.771-22.84,42.113c-4.812,15.276-7.952,31.019-12.71,46.311c-2.326,7.477-5.007,14.869-8.494,21.891
					c-3.128,6.299-8.559,12.133-10.446,18.92c-9.266,33.332,3.558,71.346,27.027,95.551c19.089,19.689,45.19,31.934,72.265,36.291
					C145.866,459.092,170.618,456.965,194.169,450.668z"/>
			</defs>
			<clipPath id="SVGID_00000121959964621182466010000000916510885932841372_">
				<use xlink:href="#SVGID_00000164494521697921115600000017329826322766999216_"  style="overflow:visible;"/>
			</clipPath>
			<g style="clip-path:url(#SVGID_00000121959964621182466010000000916510885932841372_);">
				<g>
					<g>
						<path style="fill:#7162D4;" d="M177.048,353.111c4.255,6.166,7.688,12.839,12.421,18.562
							c5.606,6.78,11.213,13.56,16.819,20.34c12.005-20.144,23.594-40.535,34.758-61.157c4.193,3.238,8.123,6.467,12.569,9.47
							c1.193,0.806-6.566,21.08-7.33,23.272c-2.846,8.161-5.956,16.229-9.323,24.189c-3.268,7.726-6.777,15.349-10.523,22.855
							c-3.023,6.059-6.487,14.706-13.376,17.318c-3.862,1.464-8.311,0.573-11.905-1.462c-3.594-2.035-6.479-5.101-9.204-8.205
							c-12.802-14.583-23.355-31.026-32.549-48.114"/>
						<path style="fill:#D7D1FA;" d="M145.583,352.864c-10.034,25.75,37.584,40.612,40.519,11.398
							C190.938,337.89,151.145,320.773,145.583,352.864z"/>
						<path style="fill:#D7D1FA;" d="M191.896,406.713c-1.785,5.932-1.634,12.604,1.295,18.063c2.929,5.458,8.876,9.42,15.065,9.14
							c6.645-0.301,12.495-5.453,14.678-11.736c2.184-6.283,1.084-13.383-1.88-19.337c-2.007-4.032-4.919-7.716-8.794-10.013
							c-3.63-2.151-9.346-3.844-12.527-0.212C196.28,396.558,193.4,401.714,191.896,406.713z"/>
					</g>
					<g>
						<g>
							<path style="fill:#7162D4;" d="M247.063,311.737c0.07-7.682,0.14-15.363,0.21-23.045c0.008-0.887,0.019-1.792,0.3-2.634
								c0.281-0.842,0.882-1.626,1.727-1.896c1.219-0.39,2.563,0.423,3.2,1.532c0.637,1.109,0.734,2.438,0.802,3.715
								c0.134,2.521,0.213,5.043,0.292,7.566c0.166,5.332,0.332,10.664,0.499,15.997"/>
							<path style="fill:#D7D1FA;" d="M245.914,303.554c-0.082,0.807,0.404,1.593,1.066,2.061c0.662,0.468,1.475,0.668,2.277,0.79
								c0.933,0.142,1.882,0.193,2.821,0.111c0.89-0.078,1.814-0.297,2.472-0.901c0.658-0.604,0.946-1.68,0.44-2.416
								c-0.516-0.751-1.563-0.859-2.473-0.895c-1.422-0.058-2.844-0.115-4.265-0.173
								C247.226,302.089,246.042,302.295,245.914,303.554z"/>
							<path style="fill:#D7D1FA;" d="M247.254,294.37c-0.065,0.031-0.129,0.065-0.192,0.101c-0.846,0.484-1.154,1.107-0.851,2.009
								c0.314,0.937,1.149,1.098,2.044,1.145c1.307,0.068,2.629,0.124,3.912-0.131c0.583-0.116,1.176-0.309,1.601-0.725
								c0.558-0.547,0.698-1.684-0.009-2.189c-0.32-0.228-0.725-0.292-1.113-0.35c-1.293-0.191-2.602-0.383-3.902-0.246
								C248.232,294.039,247.717,294.147,247.254,294.37z"/>
						</g>
						<g>
							<path style="fill:#7162D4;" d="M256.386,313.676c0.646-6.23,1.291-12.461,1.937-18.691c0.248-2.395,0.568-4.959,2.165-6.76
								c0.464-0.523,1.14-0.99,1.817-0.815c0.725,0.187,1.076,0.998,1.271,1.721c0.733,2.713,0.728,5.565,0.649,8.374
								c-0.184,6.581-0.742,13.146-1.3,19.706"/>
							<path style="fill:#D7D1FA;" d="M256.266,304.444c-0.082,0.807,0.404,1.593,1.066,2.061c0.662,0.468,1.475,0.668,2.277,0.79
								c0.933,0.142,1.882,0.193,2.821,0.111c0.89-0.078,1.814-0.297,2.472-0.901c0.658-0.604,0.946-1.68,0.44-2.416
								c-0.516-0.75-1.562-0.858-2.473-0.895c-1.422-0.057-2.844-0.115-4.266-0.173
								C257.578,302.979,256.394,303.185,256.266,304.444z"/>
							<path style="fill:#D7D1FA;" d="M258.246,294.179c-0.422,0.266-0.708,0.711-0.868,1.184c-0.185,0.548-0.195,1.204,0.172,1.651
								c0.412,0.502,1.14,0.577,1.788,0.61c1.307,0.068,2.629,0.124,3.913-0.131c0.583-0.116,1.176-0.309,1.601-0.725
								c0.425-0.416,0.629-1.103,0.342-1.623c-0.35-0.635-1.199-0.748-1.924-0.787c-0.968-0.052-1.936-0.103-2.904-0.155
								C260.139,294.192,258.246,293.677,258.246,294.179z"/>
						</g>
						<g>
							<path style="fill:#7162D4;" d="M237.094,313.997c-0.454-5.333-0.907-10.667-1.36-16c-0.192-2.261-0.385-4.526-0.351-6.795
								c0.013-0.861,0.062-1.74,0.379-2.541c0.317-0.801,0.946-1.522,1.779-1.743c0.94-0.25,1.962,0.19,2.635,0.892
								c0.673,0.703,1.055,1.631,1.361,2.555c0.83,2.507,1.202,5.139,1.57,7.754c0.776,5.513,1.553,11.027,2.33,16.54"/>
							<path style="fill:#D7D1FA;" d="M237.336,304.441c-0.526,0.203-1.062,0.462-1.39,0.921c-0.328,0.459-0.368,1.168,0.053,1.543
								c0.359,0.321,0.901,0.299,1.379,0.238c1.869-0.238,3.684-0.778,5.49-1.315c0.566-0.168,1.266-0.375,1.579-0.925
								c0.25-0.44,0.221-1.13-0.227-1.433c-0.481-0.325-1.248-0.137-1.776-0.087c-0.814,0.077-1.627,0.176-2.432,0.324
								C239.1,303.875,238.2,304.107,237.336,304.441z"/>
							<path style="fill:#D7D1FA;" d="M236.312,295.295c-0.377,0.12-0.757,0.257-1.067,0.502c-0.31,0.245-0.544,0.618-0.528,1.013
								c0.021,0.527,0.483,0.954,0.988,1.107s1.047,0.093,1.572,0.031c1.063-0.125,2.126-0.251,3.189-0.376
								c0.582-0.069,1.174-0.14,1.71-0.376c0.981-0.431,1.809-1.933,0.721-2.747c-0.396-0.297-0.941-0.24-1.402-0.189
								c-0.82,0.09-1.64,0.22-2.451,0.369C238.122,294.798,237.206,295.01,236.312,295.295z"/>
						</g>
						<g>
							<path style="fill:#D7D1FA;" d="M240.111,340.249c-0.601-0.581-1.127-1.231-1.541-1.96c-0.893-1.573-1.208-3.399-1.478-5.188
								c-0.846-5.592-1.408-11.237-1.39-16.893c0.004-1.155,0.045-2.363,0.604-3.374c0.577-1.042,1.646-1.741,2.776-2.117
								c1.913-0.636,4.034-0.545,6.023-0.553c2.149-0.009,4.292,0.179,6.439,0.213c3.372,0.053,6.742,0.231,10.101,0.534
								c0.774,0.07,1.59,0.162,2.212,0.628c0.935,0.701,1.135,2.003,1.204,3.169c0.248,4.216-0.264,8.446-1.259,12.541
								c-0.926,3.812-2.292,7.425-3.905,10.97c-1.363,2.994-3.663,5.154-6.96,5.881c-3.288,0.724-6.777-0.087-9.748-1.671
								C242.08,341.836,241.012,341.121,240.111,340.249z"/>
							<path style="fill:#13DCF2;" d="M249.447,319.053c-1.568,0.259-2.648,1.77-3.083,3.299c-0.695,2.444-0.131,5.212,1.467,7.188
								c0.844,1.044,2.056,1.903,3.398,1.898c1.251-0.004,2.414-0.777,3.124-1.806c0.71-1.03,1.022-2.286,1.152-3.53
								c0.193-1.838-0.158-3.814-1.514-5.175C252.943,319.875,250.931,318.807,249.447,319.053z"/>
						</g>
						<g>
							<path style="fill:#7162D4;" d="M225.743,312.627c-0.022-0.962,0.023-1.959,0.444-2.824c0.421-0.865,1.303-1.569,2.264-1.51
								c1.013,0.062,1.808,0.927,2.225,1.852c0.417,0.925,0.569,1.95,0.959,2.887c1.784,4.293,7.723,5.384,10.024,9.424
								c0.967,1.697,1.163,3.71,1.339,5.654c0.096,1.062,0.191,2.143-0.032,3.185c-0.223,1.042-0.819,2.059-1.776,2.528
								c-2.112,1.033-4.219-0.644-5.477-2.177c-1.51-1.84-3.412-3.279-4.895-5.16C227.724,322.558,225.86,317.639,225.743,312.627z"
								/>
							<path style="fill:#D7D1FA;" d="M231.258,319.521c-0.532,0.682-1.209,1.237-1.772,1.893c-0.564,0.656-1.026,1.466-0.993,2.331
								c0.048,1.277,1.361,2.354,2.623,2.151c1.275-0.205,2.123-1.426,2.626-2.616c0.822-1.944,1.134-4.1,0.898-6.197
								c-0.079-0.701-0.226-1.415-0.619-2.001c-0.228-0.341-0.969-1.116-1.457-0.872c-0.457,0.228-0.084,1.251-0.084,1.69
								C232.479,317.196,232.057,318.497,231.258,319.521z"/>
						</g>
					</g>
				</g>
				<g>
					<path style="fill:#7162D4;" d="M82.088,389.425c3.615,26.477,9.61,52.629,17.889,78.037c0.545,1.672,1.142,3.409,2.405,4.631
						c1.543,1.492,3.786,1.944,5.902,2.301c10.215,1.725,20.546,2.768,30.9,3.12c1.654,0.056,3.397,0.075,4.848-0.72
						c2.075-1.137,2.984-3.593,3.675-5.856c7.391-24.18,8.903-50.135,4.368-75.01"/>
					<path style="fill:#13DCF2;" d="M107.842,430.402c1.383,6.223,3.658,12.519,8.239,16.953c4.581,4.434,11.943,6.481,17.527,3.404
						c4.865-2.68,7.211-8.351,8.522-13.748c1.423-5.855,2.051-11.903,1.863-17.926c-0.137-4.388-0.784-8.97-3.35-12.533
						c-2.57-3.569-6.74-5.646-10.94-6.951c-4.077-1.267-8.501-1.927-12.603-0.746C103.206,402.858,105.411,419.462,107.842,430.402z
						"/>
				</g>
				<g>
					<path style="fill:#9A8DF2;" d="M173.96,359.517c0.002,2.022-0.096,4.042-0.257,6.024c-1.064,13.033-1.767,25.842-3.262,38.754
						c-0.742,6.408-0.155,10.068-5.027,14.908c-3.936,3.909-8.935,6.72-14.233,8.315c-8.171,2.459-16.973,2.185-25.334,0.477
						c-18.312-3.74-35.127-14.482-46.11-29.603c-7.929-10.917-12.749-24.04-13.916-37.473c-1.006-11.577-1.975-25.426,9.68-32.492
						c4.405-2.67,9.785-3.023,14.929-3.306c18.969-1.043,38.248-2.061,56.738,2.299c7.706,1.817,15.577,4.821,20.591,10.949
						C172.522,344.189,173.953,351.87,173.96,359.517z"/>
					<path style="fill:#13DCF2;" d="M122.215,378.729c1.869,28.94,27.646,13.271,18.818-10.455
						C131.204,349.053,122.783,365.039,122.215,378.729z"/>
					<path style="fill:#13DCF2;" d="M97.494,378.301c1.569,24.302,23.216,11.145,15.803-8.78
						C105.042,353.38,97.971,366.805,97.494,378.301z"/>
					<path style="fill:#13DCF2;" d="M149.182,378.436c1.569,24.302,23.216,11.145,15.803-8.78
						C156.731,353.515,149.659,366.94,149.182,378.436z"/>
				</g>
				<g>
					<path style="fill:#7162D4;" d="M136.575,297.485c-0.804-4.547-1.942-9.264-5.001-12.723c-3.701-4.186-9.718-5.78-15.275-5.196
						c-3.065,0.322-6.034,1.237-8.853,2.462c-2.418,1.051-5.572,1.136-6.821,3.816c-0.78,1.672-0.77,3.589-0.746,5.434
						c0.141,10.844,0.282,21.687,0.424,32.531c0.039,3.028,0.104,6.168,1.417,8.896c1.763,3.662,5.472,5.964,9.169,7.652
						c6.225,2.843,12.976,4.526,19.807,4.94c2.253,0.136,4.765,0.042,6.393-1.522c1.436-1.38,1.773-3.521,1.963-5.504
						c0.648-6.784,0.091-13.354-0.347-20.111C138.255,311.215,137.792,304.352,136.575,297.485z"/>
					<path style="fill:#13DCF2;" d="M118.892,324.779c1.696,2.861,4.269,5.797,7.594,5.702c2.36-0.067,4.444-1.745,5.609-3.799
						c1.164-2.054,1.562-4.445,1.846-6.788c0.502-4.137,0.713-8.341,0.116-12.466c-0.597-4.125-2.037-8.186-4.584-11.485
						c-2.046-2.65-4.996-4.842-8.339-5.02c-11.765-0.628-8.115,18.869-6.101,25.218C115.989,319.153,117.28,322.06,118.892,324.779z
						"/>
				</g>
				<g>
					<g>
						<path style="fill:#9A8DF2;" d="M125.813,270.363c-3.491-3.696-5.471-8.551-7.018-13.395c-1.301-4.073-2.354-8.24-4.027-12.185
							c-1.445-3.408-4.14-6.332-7.031-8.616c-5.316-4.199-12.717-6.573-19.087-4.081c-0.076,0.183-0.165,0.361-0.237,0.545
							c-3.295,8.296-5.038,17.344-4.187,26.25c1.742,18.241,11.824,36.702,28.269,45.463c7.809,4.16,16.745,6.178,25.583,5.777
							c3.462-0.157,6.94-0.687,10.158-1.973c8.699-3.476,11.338-11.713,13.175-20.196c1.314-6.069,2.167-12.236,2.571-18.431
							c-4.685,4.842-11.453,7.575-18.227,7.972C138.479,277.921,130.82,275.661,125.813,270.363z"/>
						<path style="fill:#351B6B;" d="M163.612,246.159c-0.308-5.719-1.515-11.622-3.574-16.965
							c-2.268-5.885-5.89-11.352-10.932-15.14c-4.895-3.678-10.918-5.628-16.985-6.449c-9.719-1.316-20.018,0.255-28.282,5.536
							c-6.975,4.457-12.063,11.35-15.188,18.946c6.37-2.492,13.771-0.118,19.087,4.081c2.891,2.284,5.586,5.208,7.031,8.616
							c1.673,3.945,2.726,8.112,4.027,12.185c1.547,4.843,3.527,9.699,7.018,13.395c5.006,5.298,12.665,7.558,19.942,7.13
							c6.774-0.398,13.542-3.13,18.227-7.972c0.129-1.978,0.216-3.958,0.252-5.939C164.343,257.767,163.923,251.933,163.612,246.159
							z"/>
					</g>
					<g>
						<path style="fill:#D7D1FA;" d="M87.618,254.454c-0.798,4.121-0.294,8.483,1.423,12.313c1.109,2.474,2.759,4.769,5.028,6.253
							c2.269,1.484,5.207,2.07,7.763,1.165c2.136-0.756,3.842-2.481,4.888-4.49c1.046-2.009,1.481-4.288,1.609-6.55
							c0.291-5.15-0.987-10.379-3.621-14.814c-1.224-2.061-2.835-4.031-5.059-4.924C92.701,240.616,88.686,248.936,87.618,254.454z"
							/>
						<path style="fill:#AEA4F5;" d="M91.807,255.339c-0.409,1.903-0.323,3.88-0.056,5.808c0.287,2.076,0.827,4.213,2.208,5.789
							c1.381,1.576,3.803,2.402,5.647,1.406c1.233-0.666,1.977-1.981,2.437-3.305c1.481-4.262,0.506-9.285-2.462-12.683
							c-1.005-1.151-3.171-3.023-4.821-2.106C93.148,251.143,92.168,253.659,91.807,255.339z"/>
					</g>
					<g>
						<g>
							<path style="fill:#13DCF2;" d="M152.044,254.796c0.241,0.865,0.733,1.822,1.619,1.963c0.506,0.081,1.027-0.145,1.399-0.498
								c0.372-0.353,0.615-0.82,0.807-1.296c0.855-2.111,0.809-4.569-0.122-6.646c-0.769-1.715-3.018-2.328-3.596-0.204
								C151.567,250.256,151.448,252.652,152.044,254.796z"/>
							<path style="fill:none;stroke:#13DCF2;stroke-linecap:round;stroke-linejoin:round;stroke-miterlimit:10;" d="M147.09,240.63
								c1.688-2.336,4.391-4.009,7.272-4.099c2.88-0.09,5.834,1.577,6.931,4.242"/>
						</g>
						<g>
							<path style="fill:#351B6B;" d="M159.245,295.831c-12.06,4.209-23.214,2.301-27.559-4.125
								c-0.898-1.329-1.971-3.539-2.082-6.976c9.566,4.7,24.236,2.754,32.962-3.421c-0.29,2.263-0.709,4.734-1.313,7.368
								C160.654,291.291,159.962,293.681,159.245,295.831z"/>
							<path style="fill:none;stroke:#13DCF2;stroke-linecap:round;stroke-linejoin:round;stroke-miterlimit:10;" d="
								M137.217,290.367c5.833,5.366,15.477,2.63,22.171,0.158"/>
						</g>
						<g>
							<path style="fill:#13DCF2;" d="M130.976,257.171c0.241,0.865,0.732,1.822,1.619,1.963c0.506,0.081,1.027-0.145,1.399-0.498
								c0.372-0.353,0.615-0.82,0.807-1.296c0.855-2.111,0.809-4.569-0.122-6.646c-0.769-1.715-3.018-2.328-3.596-0.204
								C130.499,252.632,130.38,255.028,130.976,257.171z"/>
							<path style="fill:none;stroke:#13DCF2;stroke-linecap:round;stroke-linejoin:round;stroke-miterlimit:10;" d="
								M125.032,248.834c0.137-2.947,1.953-5.757,4.583-7.093c2.63-1.336,5.971-1.146,8.432,0.48"/>
						</g>
					</g>
				</g>
				<g>
					<path style="fill:#7162D4;" d="M62.043,439.762c-4.748,0.832-9.671-0.174-14.118-2.034s-8.494-4.541-12.51-7.206
						c-1.268-0.842-2.586-1.736-3.308-3.076c-0.803-1.491-0.737-3.282-0.618-4.971c1.399-19.925,7.224-39.526,16.932-56.982
						c-0.283,0.508,5.18,4.806,5.838,5.322c2.165,1.696,4.462,3.224,6.863,4.566c3.077,1.721,10.11,2.958,9.994,7.383
						c-0.072,2.744-1.491,5.775-2.169,8.426c-0.746,2.921-1.434,5.857-2.063,8.806c-1.312,6.154-2.366,12.363-3.16,18.605
						C62.832,425.623,62.27,432.687,62.043,439.762z"/>
					<path style="fill:#D7D1FA;" d="M44.678,355.29c-3.568,9.165-1.358,20.475,5.864,27.151c7.222,6.675,19.157,7.849,27.194,2.181
						c8.016-5.653,10.965-16.734,8.849-26.311c-1.093-4.948-3.418-9.696-7.06-13.22c-5.114-4.948-13.177-8.137-19.866-5.13
						C52.991,342.957,47.349,348.429,44.678,355.29z"/>
				</g>
			</g>
		</g>
	</g>
	<g>
		<path style="fill:#FAECC4;" d="M424.525,209.926c-1.067-9.195-5.595-18.278-13.511-23.948c-13.233-9.478-32.54-7.471-47.732-0.96
			c-9.392,4.025-18.291,9.838-23.378,18.161c-7.897,12.92-5.173,29.023-0.872,43.315c4.301,14.292,10.018,28.941,7.38,43.573
			c-3.598,19.965-22.315,36.717-21.014,56.921c1.107,17.202,17.388,31.121,35.349,35.84c15.232,4.002,32.205,2.521,46.02-4.627
			c13.814-7.148,24.159-20.015,26.881-34.412c2.346-12.41-0.811-25.155-5.236-37.072c-4.425-11.917-10.145-23.47-13.183-35.752
			c-2.473-9.998-4.133-23.516,1.669-32.843c2.019-3.246,4.591-5.531,5.848-9.225C424.77,222.945,425.242,216.101,424.525,209.926z"
			/>
		<g>
			<g>
				<g>
					<path style="fill:#9A8DF2;" d="M447.241,324.039H308.079c-4.591,0-8.313-3.722-8.313-8.313v-87.375
						c0-4.591,3.722-8.313,8.313-8.313h139.163c4.591,0,8.313,3.722,8.313,8.313v87.375
						C455.554,320.318,451.833,324.039,447.241,324.039z"/>
					<path style="fill:#C1B7FF;" d="M443.987,312.884H310.696c-2.755,0-4.988-2.233-4.988-4.988v-76.409
						c0-2.755,2.233-4.988,4.988-4.988h133.291c2.755,0,4.988,2.233,4.988,4.988v76.409
						C448.975,310.651,446.742,312.884,443.987,312.884z"/>
				</g>
				<g>
					<g>
						
							<text transform="matrix(1 0 0 1 327.2306 282.2529)" style="fill:#FFFFFF; font-family:'OpenSans-Bold'; font-size:52.0807px;">NPL</text>
					</g>
					<path style="fill:#FFFFFF;" d="M318.921,292.141l116.493-2.803c1.413-0.034,2.577,1.102,2.577,2.516l0,0
						c0,1.39-1.127,2.516-2.516,2.516H318.921V292.141z"/>
				</g>
			</g>
			<g>
				<path style="fill:#7162D4;" d="M303.252,324.039h148.738c1.378,0,2.695,0.569,3.639,1.572l26.37,27.992
					c3.005,3.19,0.744,8.428-3.639,8.428H282.062c-4.13,0-6.48-4.724-3.987-8.018l21.19-27.992
					C300.21,324.773,301.686,324.039,303.252,324.039z"/>
				<g>
					<polygon style="fill:#351B6B;" points="284.696,353.954 284.696,351.884 305.135,323.493 448.975,323.493 475.726,352.839 
						475.726,353.954 					"/>
					<g>
						<polyline style="fill:none;stroke:#DED9FF;stroke-linecap:round;stroke-linejoin:round;stroke-miterlimit:10;" points="
							334.203,353.954 334.203,350.876 337.227,345.198 422.391,345.198 425.575,351.884 425.575,353.954 						"/>
						
							<line style="fill:none;stroke:#DED9FF;stroke-linecap:round;stroke-linejoin:round;stroke-miterlimit:10;" x1="468.761" y1="345.198" x2="289.509" y2="345.198"/>
						
							<line style="fill:none;stroke:#DED9FF;stroke-linecap:round;stroke-linejoin:round;stroke-miterlimit:10;" x1="294.841" y1="337.792" x2="462.009" y2="337.792"/>
						
							<line style="fill:none;stroke:#DED9FF;stroke-linecap:round;stroke-linejoin:round;stroke-miterlimit:10;" x1="300.903" y1="329.371" x2="454.573" y2="329.371"/>
						<polyline style="fill:none;stroke:#DED9FF;stroke-linecap:round;stroke-linejoin:round;stroke-miterlimit:10;" points="
							322.688,345.198 318.496,350.876 318.496,353.954 						"/>
						<polyline style="fill:none;stroke:#DED9FF;stroke-linecap:round;stroke-linejoin:round;stroke-miterlimit:10;" points="
							306.239,345.198 301.941,350.345 301.941,353.954 						"/>
						<polyline style="fill:none;stroke:#DED9FF;stroke-linecap:round;stroke-linejoin:round;stroke-miterlimit:10;" points="
							438.846,345.198 442.985,351.566 442.985,353.954 						"/>
						<polyline style="fill:none;stroke:#DED9FF;stroke-linecap:round;stroke-linejoin:round;stroke-miterlimit:10;" points="
							453.909,345.198 458.656,351.293 458.757,353.954 						"/>
						
							<line style="fill:none;stroke:#DED9FF;stroke-linecap:round;stroke-linejoin:round;stroke-miterlimit:10;" x1="316.427" y1="337.792" x2="311.121" y2="345.198"/>
						
							<line style="fill:none;stroke:#DED9FF;stroke-linecap:round;stroke-linejoin:round;stroke-miterlimit:10;" x1="334.892" y1="337.792" x2="331.603" y2="345.198"/>
						
							<line style="fill:none;stroke:#DED9FF;stroke-linecap:round;stroke-linejoin:round;stroke-miterlimit:10;" x1="355.062" y1="337.792" x2="354.001" y2="345.198"/>
						
							<line style="fill:none;stroke:#DED9FF;stroke-linecap:round;stroke-linejoin:round;stroke-miterlimit:10;" x1="442.239" y1="337.792" x2="447.545" y2="345.198"/>
						
							<line style="fill:none;stroke:#DED9FF;stroke-linecap:round;stroke-linejoin:round;stroke-miterlimit:10;" x1="423.774" y1="337.792" x2="427.063" y2="345.198"/>
						
							<line style="fill:none;stroke:#DED9FF;stroke-linecap:round;stroke-linejoin:round;stroke-miterlimit:10;" x1="403.198" y1="337.792" x2="404.259" y2="345.198"/>
						
							<line style="fill:none;stroke:#DED9FF;stroke-linecap:round;stroke-linejoin:round;stroke-miterlimit:10;" x1="379.889" y1="337.792" x2="379.889" y2="345.198"/>
						
							<line style="fill:none;stroke:#DED9FF;stroke-linecap:round;stroke-linejoin:round;stroke-miterlimit:10;" x1="328.313" y1="328.696" x2="323.855" y2="337.792"/>
						
							<line style="fill:none;stroke:#DED9FF;stroke-linecap:round;stroke-linejoin:round;stroke-miterlimit:10;" x1="346.99" y1="329.371" x2="344.019" y2="337.792"/>
						
							<line style="fill:none;stroke:#DED9FF;stroke-linecap:round;stroke-linejoin:round;stroke-miterlimit:10;" x1="367.26" y1="328.696" x2="366.305" y2="337.792"/>
						
							<line style="fill:none;stroke:#DED9FF;stroke-linecap:round;stroke-linejoin:round;stroke-miterlimit:10;" x1="311.121" y1="329.371" x2="305.708" y2="337.792"/>
						
							<line style="fill:none;stroke:#DED9FF;stroke-linecap:round;stroke-linejoin:round;stroke-miterlimit:10;" x1="428.159" y1="329.371" x2="432.285" y2="337.792"/>
						
							<line style="fill:none;stroke:#DED9FF;stroke-linecap:round;stroke-linejoin:round;stroke-miterlimit:10;" x1="409.15" y1="329.371" x2="412.122" y2="337.792"/>
						
							<line style="fill:none;stroke:#DED9FF;stroke-linecap:round;stroke-linejoin:round;stroke-miterlimit:10;" x1="388.881" y1="328.696" x2="389.836" y2="337.792"/>
						
							<line style="fill:none;stroke:#DED9FF;stroke-linecap:round;stroke-linejoin:round;stroke-miterlimit:10;" x1="445.02" y1="329.371" x2="450.432" y2="337.792"/>
					</g>
				</g>
			</g>
		</g>
	</g>
	<g>
		<g>
			<g>
				<path style="fill:#F2862C;" d="M703.983,107.15H582.216c-3.175,0-5.748-2.574-5.748-5.748v-59.69
					c0-3.175,2.574-5.748,5.748-5.748h121.767c3.175,0,5.748,2.574,5.748,5.748v59.69
					C709.732,104.577,707.158,107.15,703.983,107.15z"/>
				<polyline style="fill:#F2862C;" points="670.398,105.095 700.632,133.484 700.632,105.095 				"/>
			</g>
			<g>
				<text transform="matrix(1 0 0 1 607.1847 88.6133)" style="fill:#FFFFFF; font-family:'OpenSans-Bold'; font-size:52.0807px;">Hi!</text>
			</g>
		</g>
		<g>
			<g>
				<path style="fill:#13DCF2;" d="M477.712,191.853h121.767c3.175,0,5.748-2.574,5.748-5.748v-59.69
					c0-3.175-2.574-5.748-5.748-5.748H477.712c-3.175,0-5.748,2.574-5.748,5.748v59.69
					C471.964,189.28,474.537,191.853,477.712,191.853z"/>
				<polyline style="fill:#13DCF2;" points="511.297,189.798 481.063,218.187 481.063,189.798 				"/>
			</g>
			<g>
				<text transform="matrix(1 0 0 1 487.5656 166.7676)" style="fill:#FFFFFF; font-family:'OpenSans-Bold'; font-size:36.88px;">Hello!</text>
			</g>
		</g>
		<g>
			<g>
				<path style="fill:#F2862C;" d="M264.467,192.338h-83.599c-20.248,0-36.662-16.414-36.662-36.663v0
					c0-20.248,16.414-36.662,36.662-36.662h83.599c20.248,0,36.663,16.414,36.663,36.662v0
					C301.129,175.924,284.715,192.338,264.467,192.338z"/>
				<polygon style="fill:#F2862C;" points="265.697,192.338 265.697,219.841 237.497,190.08 				"/>
			</g>
			<g>
				<text transform="matrix(1 0 0 1 161.0675 170.2983)" style="fill:#FFFFFF; font-family:'OpenSans-Bold'; font-size:36.88px;">100101</text>
			</g>
		</g>
		<g>
			<g>
				<path style="fill:#13DCF2;" d="M153.789,112.139H76.237c-21.899,0-39.652-17.753-39.652-39.652v0
					c0-21.899,17.753-39.652,39.652-39.652h77.552c21.899,0,39.652,17.753,39.652,39.652v0
					C193.441,94.386,175.688,112.139,153.789,112.139z"/>
				<polygon style="fill:#13DCF2;" points="69.895,111.696 69.895,133.107 94.429,108.574 				"/>
			</g>
			<g>
				<text transform="matrix(1 0 0 1 51.6046 83.9834)" style="fill:#FFFFFF; font-family:'OpenSans-Bold'; font-size:36.88px;">101010</text>
			</g>
		</g>
		<g>
			
				<line style="fill:none;stroke:#422287;stroke-width:2;stroke-miterlimit:10;stroke-dasharray:8;" x1="111.418" y1="187.148" x2="111.418" y2="119.013"/>
			<path style="fill:none;stroke:#422287;stroke-width:2;stroke-miterlimit:10;stroke-dasharray:8;" d="M206.841,58.533h146.051
				c2.761,0,5,2.239,5,5v98.744"/>
			<path style="fill:none;stroke:#422287;stroke-width:2;stroke-miterlimit:10;stroke-dasharray:8;" d="M563.091,58.533H406.652
				c-2.761,0-5,2.239-5,5v105.902"/>
			
				<line style="fill:none;stroke:#422287;stroke-width:2;stroke-miterlimit:10;stroke-dasharray:8;" x1="639.614" y1="120.84" x2="639.614" y2="198.919"/>
			<path style="fill:none;stroke:#422287;stroke-width:2;stroke-miterlimit:10;stroke-dasharray:8;" d="M228.886,463.036h109.097
				c2.761,0,5-2.239,5-5v-63.802"/>
			<path style="fill:none;stroke:#422287;stroke-width:2;stroke-miterlimit:10;stroke-dasharray:8;" d="M515.749,463.036H406.652
				c-2.761,0-5-2.239-5-5v-63.802"/>
			<path style="fill:none;stroke:#422287;stroke-width:2;stroke-miterlimit:10;stroke-dasharray:8;" d="M222.667,112.139V95.182
				c0-2.761,2.239-5,5-5h97.368c2.761,0,5,2.239,5,5v90.839"/>
			<path style="fill:none;stroke:#422287;stroke-width:2;stroke-miterlimit:10;stroke-dasharray:8;" d="M197.424,203.993v28.447
				c0,2.762,2.239,5,5,5h79.942"/>
			<path style="fill:none;stroke:#422287;stroke-width:2;stroke-miterlimit:10;stroke-dasharray:8;" d="M552.36,112.139V95.182
				c0-2.761-2.239-5-5-5H438.375c-2.762,0-5,2.239-5,5v91.966"/>
			<path style="fill:none;stroke:#422287;stroke-width:2;stroke-miterlimit:10;stroke-dasharray:8;" d="M538.595,203.993v28.447
				c0,2.762-2.239,5-5,5H464.55"/>
		</g>
	</g>
</g>
</svg>
